# xmcd CD database file
#
# Track frame offsets:
#	150
#	17587
#	38585
#	60130
#	80560
#	101182
#
# Disc length: 1655 seconds
#
# Revision: 2
# Processed by: cddbd v1.5.1PL0 Copyright (c) Steve Scherf et al.
# Submitted via: CDex 1.51
#
DISCID=3b067506
DTITLE=iyiyim - やさしさという形のないもの
DYEAR=1900
DGENRE=JPop
TTITLE0=Dolls
TTITLE1=やさしい風
TTITLE2=ONE
TTITLE3=最後の恋にしよう
TTITLE4=SUNDAY
TTITLE5=僕らの生きる道
EXTD=
EXTT0=
EXTT1=
EXTT2=
EXTT3=
EXTT4=
EXTT5=
PLAYORDER=
